<mxfile host="app.diagrams.net" modified="2021-10-20T14:09:39.707Z" agent="5.0 (X11; Linux x86_64) AppleWebKit/537.36 (KHTML, like Gecko) Chrome/94.0.4606.81 Safari/537.36" etag="3uj-CK6kSIMjbc57afq6" version="15.3.8" type="github">
  <diagram id="kTSvU5j4Q-R0hynCDqLe" name="Page-1">
    <mxGraphModel dx="2455" dy="828" grid="1" gridSize="10" guides="1" tooltips="1" connect="1" arrows="1" fold="1" page="1" pageScale="1" pageWidth="827" pageHeight="1169" math="0" shadow="0">
      <root>
        <mxCell id="0" />
        <mxCell id="1" parent="0" />
        <mxCell id="cD2VPQBfuVm57fBY7nrV-7" value="" style="edgeStyle=orthogonalEdgeStyle;rounded=0;orthogonalLoop=1;jettySize=auto;html=1;" edge="1" parent="1" source="cD2VPQBfuVm57fBY7nrV-3" target="cD2VPQBfuVm57fBY7nrV-4">
          <mxGeometry relative="1" as="geometry" />
        </mxCell>
        <mxCell id="cD2VPQBfuVm57fBY7nrV-3" value="reinvest&lt;br&gt;" style="ellipse;whiteSpace=wrap;html=1;" vertex="1" parent="1">
          <mxGeometry x="374" y="60" width="80" height="50" as="geometry" />
        </mxCell>
        <mxCell id="cD2VPQBfuVm57fBY7nrV-8" value="" style="edgeStyle=orthogonalEdgeStyle;rounded=0;orthogonalLoop=1;jettySize=auto;html=1;" edge="1" parent="1" source="cD2VPQBfuVm57fBY7nrV-4" target="cD2VPQBfuVm57fBY7nrV-5">
          <mxGeometry relative="1" as="geometry" />
        </mxCell>
        <mxCell id="cD2VPQBfuVm57fBY7nrV-4" value="harvest" style="rounded=0;whiteSpace=wrap;html=1;" vertex="1" parent="1">
          <mxGeometry x="369.5" y="160" width="89" height="40" as="geometry" />
        </mxCell>
        <mxCell id="cD2VPQBfuVm57fBY7nrV-9" value="" style="edgeStyle=orthogonalEdgeStyle;rounded=0;orthogonalLoop=1;jettySize=auto;html=1;" edge="1" parent="1" source="cD2VPQBfuVm57fBY7nrV-5" target="cD2VPQBfuVm57fBY7nrV-6">
          <mxGeometry relative="1" as="geometry" />
        </mxCell>
        <mxCell id="cD2VPQBfuVm57fBY7nrV-5" value="get reward&lt;br&gt;amount" style="rounded=0;whiteSpace=wrap;html=1;" vertex="1" parent="1">
          <mxGeometry x="369" y="260" width="89" height="40" as="geometry" />
        </mxCell>
        <mxCell id="cD2VPQBfuVm57fBY7nrV-13" value="" style="edgeStyle=orthogonalEdgeStyle;rounded=0;orthogonalLoop=1;jettySize=auto;html=1;" edge="1" parent="1" source="cD2VPQBfuVm57fBY7nrV-6" target="cD2VPQBfuVm57fBY7nrV-12">
          <mxGeometry relative="1" as="geometry" />
        </mxCell>
        <mxCell id="cD2VPQBfuVm57fBY7nrV-16" style="edgeStyle=orthogonalEdgeStyle;rounded=0;orthogonalLoop=1;jettySize=auto;html=1;entryX=0.5;entryY=0;entryDx=0;entryDy=0;" edge="1" parent="1" source="cD2VPQBfuVm57fBY7nrV-6" target="cD2VPQBfuVm57fBY7nrV-14">
          <mxGeometry relative="1" as="geometry">
            <mxPoint x="500" y="450" as="targetPoint" />
            <Array as="points">
              <mxPoint x="500" y="385" />
              <mxPoint x="500" y="470" />
            </Array>
          </mxGeometry>
        </mxCell>
        <mxCell id="cD2VPQBfuVm57fBY7nrV-6" value="reward &amp;gt;0" style="rhombus;whiteSpace=wrap;html=1;" vertex="1" parent="1">
          <mxGeometry x="371" y="350" width="86" height="80" as="geometry" />
        </mxCell>
        <mxCell id="cD2VPQBfuVm57fBY7nrV-12" value="failwith(Vault/not-reward)" style="ellipse;whiteSpace=wrap;html=1;" vertex="1" parent="1">
          <mxGeometry x="160" y="365" width="120" height="50" as="geometry" />
        </mxCell>
        <mxCell id="cD2VPQBfuVm57fBY7nrV-20" value="" style="edgeStyle=orthogonalEdgeStyle;rounded=0;orthogonalLoop=1;jettySize=auto;html=1;" edge="1" parent="1" source="cD2VPQBfuVm57fBY7nrV-14" target="cD2VPQBfuVm57fBY7nrV-19">
          <mxGeometry relative="1" as="geometry" />
        </mxCell>
        <mxCell id="cD2VPQBfuVm57fBY7nrV-36" style="edgeStyle=orthogonalEdgeStyle;rounded=0;orthogonalLoop=1;jettySize=auto;html=1;exitX=1;exitY=0.5;exitDx=0;exitDy=0;entryX=0.5;entryY=0;entryDx=0;entryDy=0;" edge="1" parent="1" source="cD2VPQBfuVm57fBY7nrV-14" target="cD2VPQBfuVm57fBY7nrV-22">
          <mxGeometry relative="1" as="geometry" />
        </mxCell>
        <mxCell id="cD2VPQBfuVm57fBY7nrV-14" value="&lt;div&gt;sender =&amp;nbsp;&lt;/div&gt;&lt;div&gt;reward_token&lt;/div&gt;" style="rhombus;whiteSpace=wrap;html=1;" vertex="1" parent="1">
          <mxGeometry x="366" y="470" width="96" height="80" as="geometry" />
        </mxCell>
        <mxCell id="cD2VPQBfuVm57fBY7nrV-17" value="yes" style="text;html=1;align=center;verticalAlign=middle;resizable=0;points=[];autosize=1;strokeColor=none;fillColor=none;" vertex="1" parent="1">
          <mxGeometry x="450" y="350" width="30" height="20" as="geometry" />
        </mxCell>
        <mxCell id="cD2VPQBfuVm57fBY7nrV-18" value="no" style="text;html=1;align=center;verticalAlign=middle;resizable=0;points=[];autosize=1;strokeColor=none;fillColor=none;" vertex="1" parent="1">
          <mxGeometry x="355" y="350" width="30" height="20" as="geometry" />
        </mxCell>
        <mxCell id="cD2VPQBfuVm57fBY7nrV-19" value="&lt;div&gt;failwith&lt;/div&gt;&lt;div&gt;(Vault/unknown-sender)&lt;/div&gt;" style="ellipse;whiteSpace=wrap;html=1;" vertex="1" parent="1">
          <mxGeometry x="160" y="480" width="135" height="60" as="geometry" />
        </mxCell>
        <mxCell id="cD2VPQBfuVm57fBY7nrV-33" style="edgeStyle=orthogonalEdgeStyle;rounded=0;orthogonalLoop=1;jettySize=auto;html=1;exitX=1;exitY=0.5;exitDx=0;exitDy=0;entryX=0;entryY=0.5;entryDx=0;entryDy=0;" edge="1" parent="1" source="cD2VPQBfuVm57fBY7nrV-22" target="cD2VPQBfuVm57fBY7nrV-23">
          <mxGeometry relative="1" as="geometry" />
        </mxCell>
        <mxCell id="cD2VPQBfuVm57fBY7nrV-38" style="edgeStyle=orthogonalEdgeStyle;rounded=0;orthogonalLoop=1;jettySize=auto;html=1;exitX=0;exitY=0.5;exitDx=0;exitDy=0;entryX=0.5;entryY=0;entryDx=0;entryDy=0;" edge="1" parent="1" source="cD2VPQBfuVm57fBY7nrV-22" target="cD2VPQBfuVm57fBY7nrV-37">
          <mxGeometry relative="1" as="geometry" />
        </mxCell>
        <mxCell id="cD2VPQBfuVm57fBY7nrV-68" value="" style="edgeStyle=orthogonalEdgeStyle;rounded=0;orthogonalLoop=1;jettySize=auto;html=1;" edge="1" parent="1" source="cD2VPQBfuVm57fBY7nrV-22" target="cD2VPQBfuVm57fBY7nrV-67">
          <mxGeometry relative="1" as="geometry" />
        </mxCell>
        <mxCell id="cD2VPQBfuVm57fBY7nrV-22" value="&lt;div&gt;branching&amp;nbsp;&lt;/div&gt;&lt;div&gt;of operations&lt;/div&gt;" style="rounded=0;whiteSpace=wrap;html=1;" vertex="1" parent="1">
          <mxGeometry x="371" y="590" width="86" height="40" as="geometry" />
        </mxCell>
        <mxCell id="cD2VPQBfuVm57fBY7nrV-32" value="" style="edgeStyle=orthogonalEdgeStyle;rounded=0;orthogonalLoop=1;jettySize=auto;html=1;" edge="1" parent="1" source="cD2VPQBfuVm57fBY7nrV-23" target="cD2VPQBfuVm57fBY7nrV-24">
          <mxGeometry relative="1" as="geometry" />
        </mxCell>
        <mxCell id="cD2VPQBfuVm57fBY7nrV-23" value="&lt;div&gt;Calculate reward&amp;nbsp;&lt;/div&gt;&lt;div&gt;for method call&amp;nbsp;&lt;/div&gt;" style="rounded=0;whiteSpace=wrap;html=1;" vertex="1" parent="1">
          <mxGeometry x="700" y="590" width="110" height="40" as="geometry" />
        </mxCell>
        <mxCell id="cD2VPQBfuVm57fBY7nrV-24" value="&lt;div&gt;reinvest_reward&amp;nbsp;&lt;/div&gt;&lt;div&gt;&amp;gt;= accuracy&lt;/div&gt;" style="rhombus;whiteSpace=wrap;html=1;" vertex="1" parent="1">
          <mxGeometry x="697.5" y="665" width="115" height="90" as="geometry" />
        </mxCell>
        <mxCell id="cD2VPQBfuVm57fBY7nrV-28" value="" style="edgeStyle=orthogonalEdgeStyle;rounded=0;orthogonalLoop=1;jettySize=auto;html=1;exitX=1;exitY=0.5;exitDx=0;exitDy=0;" edge="1" parent="1" source="cD2VPQBfuVm57fBY7nrV-24" target="cD2VPQBfuVm57fBY7nrV-27">
          <mxGeometry relative="1" as="geometry" />
        </mxCell>
        <mxCell id="cD2VPQBfuVm57fBY7nrV-25" value="yes" style="text;html=1;align=center;verticalAlign=middle;resizable=0;points=[];autosize=1;strokeColor=none;fillColor=none;" vertex="1" parent="1">
          <mxGeometry x="806.25" y="685" width="30" height="20" as="geometry" />
        </mxCell>
        <mxCell id="cD2VPQBfuVm57fBY7nrV-31" value="" style="edgeStyle=orthogonalEdgeStyle;rounded=0;orthogonalLoop=1;jettySize=auto;html=1;exitX=0;exitY=0.5;exitDx=0;exitDy=0;entryX=0;entryY=0.5;entryDx=0;entryDy=0;" edge="1" parent="1" source="cD2VPQBfuVm57fBY7nrV-24" target="cD2VPQBfuVm57fBY7nrV-29">
          <mxGeometry relative="1" as="geometry">
            <mxPoint x="630" y="715" as="sourcePoint" />
            <mxPoint x="660" y="935" as="targetPoint" />
            <Array as="points">
              <mxPoint x="660" y="710" />
              <mxPoint x="660" y="935" />
            </Array>
          </mxGeometry>
        </mxCell>
        <mxCell id="cD2VPQBfuVm57fBY7nrV-26" value="no" style="text;html=1;align=center;verticalAlign=middle;resizable=0;points=[];autosize=1;strokeColor=none;fillColor=none;" vertex="1" parent="1">
          <mxGeometry x="667.5" y="685" width="30" height="20" as="geometry" />
        </mxCell>
        <mxCell id="cD2VPQBfuVm57fBY7nrV-30" value="" style="edgeStyle=orthogonalEdgeStyle;rounded=0;orthogonalLoop=1;jettySize=auto;html=1;" edge="1" parent="1" source="cD2VPQBfuVm57fBY7nrV-27" target="cD2VPQBfuVm57fBY7nrV-29">
          <mxGeometry relative="1" as="geometry" />
        </mxCell>
        <mxCell id="cD2VPQBfuVm57fBY7nrV-27" value="&lt;div&gt;Paying a reward&amp;nbsp;&lt;/div&gt;&lt;div&gt;for a method call&lt;/div&gt;" style="rounded=0;whiteSpace=wrap;html=1;" vertex="1" parent="1">
          <mxGeometry x="703.75" y="815" width="102.5" height="50" as="geometry" />
        </mxCell>
        <mxCell id="cD2VPQBfuVm57fBY7nrV-29" value="end" style="ellipse;whiteSpace=wrap;html=1;" vertex="1" parent="1">
          <mxGeometry x="720" y="915" width="70" height="40" as="geometry" />
        </mxCell>
        <mxCell id="cD2VPQBfuVm57fBY7nrV-34" value="no" style="text;html=1;align=center;verticalAlign=middle;resizable=0;points=[];autosize=1;strokeColor=none;fillColor=none;" vertex="1" parent="1">
          <mxGeometry x="345" y="480" width="30" height="20" as="geometry" />
        </mxCell>
        <mxCell id="cD2VPQBfuVm57fBY7nrV-35" value="yes" style="text;html=1;align=center;verticalAlign=middle;resizable=0;points=[];autosize=1;strokeColor=none;fillColor=none;" vertex="1" parent="1">
          <mxGeometry x="455" y="480" width="30" height="20" as="geometry" />
        </mxCell>
        <mxCell id="cD2VPQBfuVm57fBY7nrV-42" style="edgeStyle=orthogonalEdgeStyle;rounded=0;orthogonalLoop=1;jettySize=auto;html=1;exitX=1;exitY=0.5;exitDx=0;exitDy=0;entryX=0.5;entryY=0;entryDx=0;entryDy=0;" edge="1" parent="1" source="cD2VPQBfuVm57fBY7nrV-37" target="cD2VPQBfuVm57fBY7nrV-41">
          <mxGeometry relative="1" as="geometry" />
        </mxCell>
        <mxCell id="cD2VPQBfuVm57fBY7nrV-44" style="edgeStyle=orthogonalEdgeStyle;rounded=0;orthogonalLoop=1;jettySize=auto;html=1;exitX=0;exitY=0.5;exitDx=0;exitDy=0;entryX=1;entryY=0.5;entryDx=0;entryDy=0;" edge="1" parent="1" source="cD2VPQBfuVm57fBY7nrV-37" target="cD2VPQBfuVm57fBY7nrV-43">
          <mxGeometry relative="1" as="geometry" />
        </mxCell>
        <mxCell id="cD2VPQBfuVm57fBY7nrV-37" value="&lt;div&gt;deposit_token =/= paul_token&lt;/div&gt;&lt;div&gt;&amp;nbsp; &amp;nbsp; and withdraw_burn &amp;gt; 0n&lt;/div&gt;" style="rhombus;whiteSpace=wrap;html=1;" vertex="1" parent="1">
          <mxGeometry x="-95" y="630" width="190" height="120" as="geometry" />
        </mxCell>
        <mxCell id="cD2VPQBfuVm57fBY7nrV-39" value="yes" style="text;html=1;align=center;verticalAlign=middle;resizable=0;points=[];autosize=1;strokeColor=none;fillColor=none;" vertex="1" parent="1">
          <mxGeometry x="65" y="650" width="30" height="20" as="geometry" />
        </mxCell>
        <mxCell id="cD2VPQBfuVm57fBY7nrV-40" value="no" style="text;html=1;align=center;verticalAlign=middle;resizable=0;points=[];autosize=1;strokeColor=none;fillColor=none;" vertex="1" parent="1">
          <mxGeometry x="-110" y="650" width="30" height="20" as="geometry" />
        </mxCell>
        <mxCell id="cD2VPQBfuVm57fBY7nrV-84" value="" style="edgeStyle=orthogonalEdgeStyle;rounded=0;orthogonalLoop=1;jettySize=auto;html=1;" edge="1" parent="1" source="cD2VPQBfuVm57fBY7nrV-41" target="cD2VPQBfuVm57fBY7nrV-82">
          <mxGeometry relative="1" as="geometry" />
        </mxCell>
        <mxCell id="cD2VPQBfuVm57fBY7nrV-41" value="&lt;div&gt;Swap withdraw&amp;nbsp;&lt;/div&gt;&lt;div&gt;burn fee to XTZ&lt;/div&gt;" style="rounded=0;whiteSpace=wrap;html=1;" vertex="1" parent="1">
          <mxGeometry x="-46.25" y="810" width="92.5" height="50" as="geometry" />
        </mxCell>
        <mxCell id="cD2VPQBfuVm57fBY7nrV-43" value="end" style="ellipse;whiteSpace=wrap;html=1;" vertex="1" parent="1">
          <mxGeometry x="-230" y="670" width="70" height="40" as="geometry" />
        </mxCell>
        <mxCell id="cD2VPQBfuVm57fBY7nrV-52" style="edgeStyle=orthogonalEdgeStyle;rounded=0;orthogonalLoop=1;jettySize=auto;html=1;exitX=0.5;exitY=1;exitDx=0;exitDy=0;entryX=0.5;entryY=0;entryDx=0;entryDy=0;" edge="1" parent="1" source="cD2VPQBfuVm57fBY7nrV-45" target="cD2VPQBfuVm57fBY7nrV-47">
          <mxGeometry relative="1" as="geometry" />
        </mxCell>
        <mxCell id="cD2VPQBfuVm57fBY7nrV-45" value="Receiving balance &#xa;after exchange" style="rounded=0;whiteSpace=wrap;html=1;" vertex="1" parent="1">
          <mxGeometry x="-50.01" y="1000" width="101.87" height="50" as="geometry" />
        </mxCell>
        <mxCell id="cD2VPQBfuVm57fBY7nrV-56" value="" style="edgeStyle=orthogonalEdgeStyle;rounded=0;orthogonalLoop=1;jettySize=auto;html=1;" edge="1" parent="1" source="cD2VPQBfuVm57fBY7nrV-47" target="cD2VPQBfuVm57fBY7nrV-55">
          <mxGeometry relative="1" as="geometry" />
        </mxCell>
        <mxCell id="cD2VPQBfuVm57fBY7nrV-62" style="edgeStyle=orthogonalEdgeStyle;rounded=0;orthogonalLoop=1;jettySize=auto;html=1;exitX=1;exitY=0.5;exitDx=0;exitDy=0;entryX=0.5;entryY=0;entryDx=0;entryDy=0;" edge="1" parent="1" source="cD2VPQBfuVm57fBY7nrV-47" target="cD2VPQBfuVm57fBY7nrV-61">
          <mxGeometry relative="1" as="geometry" />
        </mxCell>
        <mxCell id="cD2VPQBfuVm57fBY7nrV-47" value="&lt;div&gt;sender =&amp;nbsp;&lt;/div&gt;&lt;div&gt;paul_token&lt;/div&gt;" style="rhombus;whiteSpace=wrap;html=1;" vertex="1" parent="1">
          <mxGeometry x="-43.76" y="1110" width="90.01" height="80" as="geometry" />
        </mxCell>
        <mxCell id="cD2VPQBfuVm57fBY7nrV-48" value="yes" style="text;html=1;align=center;verticalAlign=middle;resizable=0;points=[];autosize=1;strokeColor=none;fillColor=none;" vertex="1" parent="1">
          <mxGeometry x="20.93" y="1090" width="30" height="20" as="geometry" />
        </mxCell>
        <mxCell id="cD2VPQBfuVm57fBY7nrV-49" value="no" style="text;html=1;align=center;verticalAlign=middle;resizable=0;points=[];autosize=1;strokeColor=none;fillColor=none;" vertex="1" parent="1">
          <mxGeometry x="-50" y="1090" width="30" height="20" as="geometry" />
        </mxCell>
        <mxCell id="cD2VPQBfuVm57fBY7nrV-58" value="" style="edgeStyle=orthogonalEdgeStyle;rounded=0;orthogonalLoop=1;jettySize=auto;html=1;" edge="1" parent="1" source="cD2VPQBfuVm57fBY7nrV-53" target="cD2VPQBfuVm57fBY7nrV-57">
          <mxGeometry relative="1" as="geometry" />
        </mxCell>
        <mxCell id="cD2VPQBfuVm57fBY7nrV-53" value="&lt;div&gt;amount -&amp;nbsp;&lt;/div&gt;&lt;div&gt;fee_balances.dev&lt;/div&gt;" style="rounded=0;whiteSpace=wrap;html=1;" vertex="1" parent="1">
          <mxGeometry x="-51.58" y="1370" width="105" height="50" as="geometry" />
        </mxCell>
        <mxCell id="cD2VPQBfuVm57fBY7nrV-55" value="&lt;div&gt;failwith&lt;/div&gt;&lt;div&gt;(Vault/unknown-sender)&lt;/div&gt;" style="ellipse;whiteSpace=wrap;html=1;" vertex="1" parent="1">
          <mxGeometry x="-230" y="1120" width="135" height="60" as="geometry" />
        </mxCell>
        <mxCell id="cD2VPQBfuVm57fBY7nrV-60" value="" style="edgeStyle=orthogonalEdgeStyle;rounded=0;orthogonalLoop=1;jettySize=auto;html=1;" edge="1" parent="1" source="cD2VPQBfuVm57fBY7nrV-57" target="cD2VPQBfuVm57fBY7nrV-59">
          <mxGeometry relative="1" as="geometry" />
        </mxCell>
        <mxCell id="cD2VPQBfuVm57fBY7nrV-57" value="&lt;div&gt;burn&amp;nbsp;&lt;/div&gt;&lt;div&gt;paul tokens&lt;/div&gt;" style="rounded=0;whiteSpace=wrap;html=1;" vertex="1" parent="1">
          <mxGeometry x="-50.01" y="1460" width="100.01" height="50" as="geometry" />
        </mxCell>
        <mxCell id="cD2VPQBfuVm57fBY7nrV-59" value="end" style="ellipse;whiteSpace=wrap;html=1;" vertex="1" parent="1">
          <mxGeometry x="-35.009999999999955" y="1540" width="70" height="40" as="geometry" />
        </mxCell>
        <mxCell id="cD2VPQBfuVm57fBY7nrV-65" style="edgeStyle=orthogonalEdgeStyle;rounded=0;orthogonalLoop=1;jettySize=auto;html=1;exitX=1;exitY=0.5;exitDx=0;exitDy=0;entryX=0.5;entryY=0;entryDx=0;entryDy=0;" edge="1" parent="1" source="cD2VPQBfuVm57fBY7nrV-61" target="cD2VPQBfuVm57fBY7nrV-53">
          <mxGeometry relative="1" as="geometry" />
        </mxCell>
        <mxCell id="cD2VPQBfuVm57fBY7nrV-66" style="edgeStyle=orthogonalEdgeStyle;rounded=0;orthogonalLoop=1;jettySize=auto;html=1;exitX=0;exitY=0.5;exitDx=0;exitDy=0;entryX=0;entryY=0.5;entryDx=0;entryDy=0;" edge="1" parent="1" source="cD2VPQBfuVm57fBY7nrV-61" target="cD2VPQBfuVm57fBY7nrV-59">
          <mxGeometry relative="1" as="geometry">
            <mxPoint x="-90" y="1540" as="targetPoint" />
            <Array as="points">
              <mxPoint x="-90" y="1280" />
              <mxPoint x="-90" y="1560" />
            </Array>
          </mxGeometry>
        </mxCell>
        <mxCell id="cD2VPQBfuVm57fBY7nrV-61" value="deposit_token &#xa;= paul_token" style="rhombus;whiteSpace=wrap;html=1;" vertex="1" parent="1">
          <mxGeometry x="-49.06999999999999" y="1230" width="100" height="100" as="geometry" />
        </mxCell>
        <mxCell id="cD2VPQBfuVm57fBY7nrV-63" value="yes" style="text;html=1;align=center;verticalAlign=middle;resizable=0;points=[];autosize=1;strokeColor=none;fillColor=none;" vertex="1" parent="1">
          <mxGeometry x="35" y="1230" width="30" height="20" as="geometry" />
        </mxCell>
        <mxCell id="cD2VPQBfuVm57fBY7nrV-64" value="no" style="text;html=1;align=center;verticalAlign=middle;resizable=0;points=[];autosize=1;strokeColor=none;fillColor=none;" vertex="1" parent="1">
          <mxGeometry x="-49.99999999999999" y="1230" width="30" height="20" as="geometry" />
        </mxCell>
        <mxCell id="cD2VPQBfuVm57fBY7nrV-70" value="" style="edgeStyle=orthogonalEdgeStyle;rounded=0;orthogonalLoop=1;jettySize=auto;html=1;" edge="1" parent="1" source="cD2VPQBfuVm57fBY7nrV-67" target="cD2VPQBfuVm57fBY7nrV-69">
          <mxGeometry relative="1" as="geometry" />
        </mxCell>
        <mxCell id="cD2VPQBfuVm57fBY7nrV-67" value="&lt;div&gt;Swap reward&amp;nbsp;&lt;/div&gt;&lt;div&gt;token to XTZ&lt;/div&gt;" style="rounded=0;whiteSpace=wrap;html=1;" vertex="1" parent="1">
          <mxGeometry x="365" y="690" width="98" height="50" as="geometry" />
        </mxCell>
        <mxCell id="cD2VPQBfuVm57fBY7nrV-74" value="" style="edgeStyle=orthogonalEdgeStyle;rounded=0;orthogonalLoop=1;jettySize=auto;html=1;" edge="1" parent="1" source="cD2VPQBfuVm57fBY7nrV-69" target="cD2VPQBfuVm57fBY7nrV-73">
          <mxGeometry relative="1" as="geometry" />
        </mxCell>
        <mxCell id="cD2VPQBfuVm57fBY7nrV-77" value="" style="edgeStyle=orthogonalEdgeStyle;rounded=0;orthogonalLoop=1;jettySize=auto;html=1;" edge="1" parent="1" source="cD2VPQBfuVm57fBY7nrV-69" target="cD2VPQBfuVm57fBY7nrV-76">
          <mxGeometry relative="1" as="geometry" />
        </mxCell>
        <mxCell id="cD2VPQBfuVm57fBY7nrV-69" value="deposit_token &#xa;= paul_token" style="rhombus;whiteSpace=wrap;html=1;" vertex="1" parent="1">
          <mxGeometry x="364" y="790" width="100" height="100" as="geometry" />
        </mxCell>
        <mxCell id="cD2VPQBfuVm57fBY7nrV-71" value="yes" style="text;html=1;align=center;verticalAlign=middle;resizable=0;points=[];autosize=1;strokeColor=none;fillColor=none;" vertex="1" parent="1">
          <mxGeometry x="445" y="800" width="30" height="20" as="geometry" />
        </mxCell>
        <mxCell id="cD2VPQBfuVm57fBY7nrV-72" value="no" style="text;html=1;align=center;verticalAlign=middle;resizable=0;points=[];autosize=1;strokeColor=none;fillColor=none;" vertex="1" parent="1">
          <mxGeometry x="355" y="800" width="30" height="20" as="geometry" />
        </mxCell>
        <mxCell id="cD2VPQBfuVm57fBY7nrV-89" style="edgeStyle=orthogonalEdgeStyle;rounded=0;orthogonalLoop=1;jettySize=auto;html=1;entryX=1;entryY=0.5;entryDx=0;entryDy=0;" edge="1" parent="1" source="cD2VPQBfuVm57fBY7nrV-73" target="cD2VPQBfuVm57fBY7nrV-87">
          <mxGeometry relative="1" as="geometry">
            <Array as="points">
              <mxPoint x="560" y="1085" />
            </Array>
          </mxGeometry>
        </mxCell>
        <mxCell id="cD2VPQBfuVm57fBY7nrV-73" value="&lt;div&gt;Swap xtz to Paul&amp;nbsp;&lt;/div&gt;&lt;div&gt;for burning and invest&lt;/div&gt;" style="rounded=0;whiteSpace=wrap;html=1;" vertex="1" parent="1">
          <mxGeometry x="510" y="815" width="110" height="50" as="geometry" />
        </mxCell>
        <mxCell id="cD2VPQBfuVm57fBY7nrV-88" value="" style="edgeStyle=orthogonalEdgeStyle;rounded=0;orthogonalLoop=1;jettySize=auto;html=1;" edge="1" parent="1" source="cD2VPQBfuVm57fBY7nrV-75" target="cD2VPQBfuVm57fBY7nrV-87">
          <mxGeometry relative="1" as="geometry" />
        </mxCell>
        <mxCell id="cD2VPQBfuVm57fBY7nrV-75" value="&lt;div&gt;Swap xtz to deposit&amp;nbsp;&lt;/div&gt;&lt;div&gt;token for invest&lt;/div&gt;" style="rounded=0;whiteSpace=wrap;html=1;" vertex="1" parent="1">
          <mxGeometry x="361" y="950" width="106" height="50" as="geometry" />
        </mxCell>
        <mxCell id="cD2VPQBfuVm57fBY7nrV-78" style="edgeStyle=orthogonalEdgeStyle;rounded=0;orthogonalLoop=1;jettySize=auto;html=1;" edge="1" parent="1" source="cD2VPQBfuVm57fBY7nrV-76">
          <mxGeometry relative="1" as="geometry">
            <mxPoint x="360" y="980" as="targetPoint" />
            <Array as="points">
              <mxPoint x="263" y="980" />
            </Array>
          </mxGeometry>
        </mxCell>
        <mxCell id="cD2VPQBfuVm57fBY7nrV-86" style="edgeStyle=orthogonalEdgeStyle;rounded=0;orthogonalLoop=1;jettySize=auto;html=1;exitX=0;exitY=0.5;exitDx=0;exitDy=0;entryX=1;entryY=0.5;entryDx=0;entryDy=0;" edge="1" parent="1" source="cD2VPQBfuVm57fBY7nrV-76" target="cD2VPQBfuVm57fBY7nrV-82">
          <mxGeometry relative="1" as="geometry" />
        </mxCell>
        <mxCell id="cD2VPQBfuVm57fBY7nrV-76" value="&lt;div&gt;branching&amp;nbsp;&lt;/div&gt;&lt;div&gt;of operations&lt;/div&gt;" style="rounded=0;whiteSpace=wrap;html=1;" vertex="1" parent="1">
          <mxGeometry x="220" y="820" width="86" height="40" as="geometry" />
        </mxCell>
        <mxCell id="cD2VPQBfuVm57fBY7nrV-85" value="" style="edgeStyle=orthogonalEdgeStyle;rounded=0;orthogonalLoop=1;jettySize=auto;html=1;" edge="1" parent="1" source="cD2VPQBfuVm57fBY7nrV-82" target="cD2VPQBfuVm57fBY7nrV-45">
          <mxGeometry relative="1" as="geometry" />
        </mxCell>
        <mxCell id="cD2VPQBfuVm57fBY7nrV-82" value="&lt;div&gt;Swap xtz to Paul&amp;nbsp;&lt;/div&gt;&lt;div&gt;for burning&lt;/div&gt;" style="rounded=0;whiteSpace=wrap;html=1;" vertex="1" parent="1">
          <mxGeometry x="-60.01" y="910" width="120" height="60" as="geometry" />
        </mxCell>
        <mxCell id="cD2VPQBfuVm57fBY7nrV-91" value="" style="edgeStyle=orthogonalEdgeStyle;rounded=0;orthogonalLoop=1;jettySize=auto;html=1;" edge="1" parent="1" source="cD2VPQBfuVm57fBY7nrV-87" target="cD2VPQBfuVm57fBY7nrV-90">
          <mxGeometry relative="1" as="geometry" />
        </mxCell>
        <mxCell id="cD2VPQBfuVm57fBY7nrV-87" value="Receiving balance &#xa;after exchange" style="rounded=0;whiteSpace=wrap;html=1;" vertex="1" parent="1">
          <mxGeometry x="363.07" y="1060" width="101.87" height="50" as="geometry" />
        </mxCell>
        <mxCell id="cD2VPQBfuVm57fBY7nrV-95" value="" style="edgeStyle=orthogonalEdgeStyle;rounded=0;orthogonalLoop=1;jettySize=auto;html=1;" edge="1" parent="1" source="cD2VPQBfuVm57fBY7nrV-90" target="cD2VPQBfuVm57fBY7nrV-94">
          <mxGeometry relative="1" as="geometry" />
        </mxCell>
        <mxCell id="cD2VPQBfuVm57fBY7nrV-97" style="edgeStyle=orthogonalEdgeStyle;rounded=0;orthogonalLoop=1;jettySize=auto;html=1;exitX=1;exitY=0.5;exitDx=0;exitDy=0;entryX=0.5;entryY=0;entryDx=0;entryDy=0;" edge="1" parent="1" source="cD2VPQBfuVm57fBY7nrV-90" target="cD2VPQBfuVm57fBY7nrV-96">
          <mxGeometry relative="1" as="geometry" />
        </mxCell>
        <mxCell id="cD2VPQBfuVm57fBY7nrV-90" value="&lt;div&gt;sender =&amp;nbsp;&lt;/div&gt;&lt;div&gt;deposit_token&lt;/div&gt;" style="rhombus;whiteSpace=wrap;html=1;" vertex="1" parent="1">
          <mxGeometry x="361.01" y="1169" width="105.99" height="79" as="geometry" />
        </mxCell>
        <mxCell id="cD2VPQBfuVm57fBY7nrV-92" value="no" style="text;html=1;align=center;verticalAlign=middle;resizable=0;points=[];autosize=1;strokeColor=none;fillColor=none;" vertex="1" parent="1">
          <mxGeometry x="365" y="1170" width="30" height="20" as="geometry" />
        </mxCell>
        <mxCell id="cD2VPQBfuVm57fBY7nrV-93" value="yes" style="text;html=1;align=center;verticalAlign=middle;resizable=0;points=[];autosize=1;strokeColor=none;fillColor=none;" vertex="1" parent="1">
          <mxGeometry x="445" y="1170" width="30" height="20" as="geometry" />
        </mxCell>
        <mxCell id="cD2VPQBfuVm57fBY7nrV-94" value="&lt;div&gt;failwith&lt;/div&gt;&lt;div&gt;(Vault/unknown-sender)&lt;/div&gt;" style="ellipse;whiteSpace=wrap;html=1;" vertex="1" parent="1">
          <mxGeometry x="180" y="1178.5" width="135" height="60" as="geometry" />
        </mxCell>
        <mxCell id="cD2VPQBfuVm57fBY7nrV-101" value="" style="edgeStyle=orthogonalEdgeStyle;rounded=0;orthogonalLoop=1;jettySize=auto;html=1;" edge="1" parent="1" source="cD2VPQBfuVm57fBY7nrV-96" target="cD2VPQBfuVm57fBY7nrV-100">
          <mxGeometry relative="1" as="geometry" />
        </mxCell>
        <mxCell id="cD2VPQBfuVm57fBY7nrV-103" style="edgeStyle=orthogonalEdgeStyle;rounded=0;orthogonalLoop=1;jettySize=auto;html=1;exitX=0;exitY=0.5;exitDx=0;exitDy=0;entryX=0;entryY=0.5;entryDx=0;entryDy=0;" edge="1" parent="1" source="cD2VPQBfuVm57fBY7nrV-96" target="cD2VPQBfuVm57fBY7nrV-102">
          <mxGeometry relative="1" as="geometry" />
        </mxCell>
        <mxCell id="cD2VPQBfuVm57fBY7nrV-96" value="amount = 0n" style="rhombus;whiteSpace=wrap;html=1;" vertex="1" parent="1">
          <mxGeometry x="371" y="1295" width="85.99" height="70" as="geometry" />
        </mxCell>
        <mxCell id="cD2VPQBfuVm57fBY7nrV-98" value="yes" style="text;html=1;align=center;verticalAlign=middle;resizable=0;points=[];autosize=1;strokeColor=none;fillColor=none;" vertex="1" parent="1">
          <mxGeometry x="437" y="1290" width="30" height="20" as="geometry" />
        </mxCell>
        <mxCell id="cD2VPQBfuVm57fBY7nrV-99" value="no" style="text;html=1;align=center;verticalAlign=middle;resizable=0;points=[];autosize=1;strokeColor=none;fillColor=none;" vertex="1" parent="1">
          <mxGeometry x="365" y="1290" width="30" height="20" as="geometry" />
        </mxCell>
        <mxCell id="cD2VPQBfuVm57fBY7nrV-100" value="&lt;div&gt;failwith&lt;/div&gt;&lt;div&gt;(Vault/zero-reinvest)&lt;/div&gt;" style="ellipse;whiteSpace=wrap;html=1;" vertex="1" parent="1">
          <mxGeometry x="532.5" y="1300" width="135" height="60" as="geometry" />
        </mxCell>
        <mxCell id="cD2VPQBfuVm57fBY7nrV-105" value="" style="edgeStyle=orthogonalEdgeStyle;rounded=0;orthogonalLoop=1;jettySize=auto;html=1;" edge="1" parent="1" source="cD2VPQBfuVm57fBY7nrV-102" target="cD2VPQBfuVm57fBY7nrV-104">
          <mxGeometry relative="1" as="geometry" />
        </mxCell>
        <mxCell id="cD2VPQBfuVm57fBY7nrV-110" style="edgeStyle=orthogonalEdgeStyle;rounded=0;orthogonalLoop=1;jettySize=auto;html=1;exitX=1;exitY=0.5;exitDx=0;exitDy=0;entryX=0.5;entryY=0;entryDx=0;entryDy=0;" edge="1" parent="1" source="cD2VPQBfuVm57fBY7nrV-102" target="cD2VPQBfuVm57fBY7nrV-109">
          <mxGeometry relative="1" as="geometry" />
        </mxCell>
        <mxCell id="cD2VPQBfuVm57fBY7nrV-102" value="&lt;div&gt;branching&amp;nbsp;&lt;/div&gt;&lt;div&gt;of operations&lt;/div&gt;" style="rounded=0;whiteSpace=wrap;html=1;" vertex="1" parent="1">
          <mxGeometry x="371.01" y="1410" width="86" height="40" as="geometry" />
        </mxCell>
        <mxCell id="cD2VPQBfuVm57fBY7nrV-108" value="" style="edgeStyle=orthogonalEdgeStyle;rounded=0;orthogonalLoop=1;jettySize=auto;html=1;" edge="1" parent="1" source="cD2VPQBfuVm57fBY7nrV-104" target="cD2VPQBfuVm57fBY7nrV-107">
          <mxGeometry relative="1" as="geometry" />
        </mxCell>
        <mxCell id="cD2VPQBfuVm57fBY7nrV-104" value="&lt;div&gt;invest deposit&amp;nbsp;&lt;/div&gt;&lt;div&gt;token to farm&lt;/div&gt;" style="rounded=0;whiteSpace=wrap;html=1;" vertex="1" parent="1">
          <mxGeometry x="361" y="1500" width="105" height="40" as="geometry" />
        </mxCell>
        <mxCell id="cD2VPQBfuVm57fBY7nrV-107" value="end" style="ellipse;whiteSpace=wrap;html=1;" vertex="1" parent="1">
          <mxGeometry x="379" y="1600" width="70" height="40" as="geometry" />
        </mxCell>
        <mxCell id="cD2VPQBfuVm57fBY7nrV-114" style="edgeStyle=orthogonalEdgeStyle;rounded=0;orthogonalLoop=1;jettySize=auto;html=1;exitX=1;exitY=0.5;exitDx=0;exitDy=0;entryX=0.5;entryY=0;entryDx=0;entryDy=0;" edge="1" parent="1" source="cD2VPQBfuVm57fBY7nrV-109" target="cD2VPQBfuVm57fBY7nrV-113">
          <mxGeometry relative="1" as="geometry" />
        </mxCell>
        <mxCell id="cD2VPQBfuVm57fBY7nrV-118" style="edgeStyle=orthogonalEdgeStyle;rounded=0;orthogonalLoop=1;jettySize=auto;html=1;exitX=0;exitY=0.5;exitDx=0;exitDy=0;entryX=0;entryY=0.5;entryDx=0;entryDy=0;" edge="1" parent="1" source="cD2VPQBfuVm57fBY7nrV-109" target="cD2VPQBfuVm57fBY7nrV-116">
          <mxGeometry relative="1" as="geometry" />
        </mxCell>
        <mxCell id="cD2VPQBfuVm57fBY7nrV-109" value="deposit_token &#xa;= paul_token" style="rhombus;whiteSpace=wrap;html=1;" vertex="1" parent="1">
          <mxGeometry x="600" y="1450" width="100" height="100" as="geometry" />
        </mxCell>
        <mxCell id="cD2VPQBfuVm57fBY7nrV-111" value="yes" style="text;html=1;align=center;verticalAlign=middle;resizable=0;points=[];autosize=1;strokeColor=none;fillColor=none;" vertex="1" parent="1">
          <mxGeometry x="675" y="1460" width="30" height="20" as="geometry" />
        </mxCell>
        <mxCell id="cD2VPQBfuVm57fBY7nrV-112" value="no" style="text;html=1;align=center;verticalAlign=middle;resizable=0;points=[];autosize=1;strokeColor=none;fillColor=none;" vertex="1" parent="1">
          <mxGeometry x="585" y="1460" width="30" height="20" as="geometry" />
        </mxCell>
        <mxCell id="cD2VPQBfuVm57fBY7nrV-117" value="" style="edgeStyle=orthogonalEdgeStyle;rounded=0;orthogonalLoop=1;jettySize=auto;html=1;" edge="1" parent="1" source="cD2VPQBfuVm57fBY7nrV-113" target="cD2VPQBfuVm57fBY7nrV-116">
          <mxGeometry relative="1" as="geometry" />
        </mxCell>
        <mxCell id="cD2VPQBfuVm57fBY7nrV-113" value="&lt;div&gt;Burn withdraw fee&lt;/div&gt;&lt;div&gt;and reinvest_burn&lt;/div&gt;" style="rounded=0;whiteSpace=wrap;html=1;" vertex="1" parent="1">
          <mxGeometry x="595" y="1590" width="110" height="50" as="geometry" />
        </mxCell>
        <mxCell id="cD2VPQBfuVm57fBY7nrV-116" value="end" style="ellipse;whiteSpace=wrap;html=1;" vertex="1" parent="1">
          <mxGeometry x="615" y="1670" width="70" height="40" as="geometry" />
        </mxCell>
      </root>
    </mxGraphModel>
  </diagram>
</mxfile>
